<svg width="436" height="333" viewBox="0 0 436 333" fill="none" xmlns="http://www.w3.org/2000/svg">
<g filter="url(#filter0_d)">
<rect x="43" y="40" width="350" height="247" rx="11" fill="white"/>
<rect x="43" y="40" width="350" height="247" rx="11" fill="url(#paint0_linear)"/>
<rect x="43" y="40" width="350" height="247" rx="11" stroke="white" stroke-width="1.57829"/>
<rect x="43" y="40" width="350" height="247" rx="11" stroke="url(#paint1_linear)" stroke-width="1.57829"/>
</g>
<path d="M107.771 147H106.49V136.922H107.771V147ZM115.481 144.523H111.324L110.363 147H109.004L112.848 136.922H113.965L117.801 147H116.442L115.481 144.523ZM111.723 143.398H115.082L113.403 139L111.723 143.398ZM127.597 136.922H128.636V147H127.354V140.203L124.229 147H123.433L120.315 140.203V147H119.034V136.922H120.073L123.831 145L127.597 136.922ZM136.774 147H135.813L133.407 139.797H134.688L136.368 144.922L137.969 139.797H138.774L140.368 144.922L142.048 139.797H143.329L140.93 147H139.969L138.368 141.883L136.774 147ZM145.679 147H144.476V139.797H145.679V147ZM144.32 137.766C144.32 137.542 144.39 137.359 144.531 137.219C144.677 137.073 144.856 137 145.07 137C145.294 137 145.476 137.073 145.617 137.219C145.763 137.359 145.835 137.542 145.835 137.766C145.835 137.979 145.763 138.159 145.617 138.305C145.476 138.451 145.294 138.523 145.07 138.523C144.856 138.523 144.677 138.451 144.531 138.305C144.39 138.159 144.32 137.979 144.32 137.766ZM148.991 147H147.788V136.922H148.991V147ZM152.38 147H151.177V136.922H152.38V147ZM158.995 143.398C158.995 143.784 159.058 144.135 159.183 144.453C159.308 144.766 159.469 145.034 159.667 145.258C159.87 145.482 160.107 145.656 160.378 145.781C160.654 145.901 160.94 145.961 161.237 145.961C161.534 145.961 161.818 145.901 162.089 145.781C162.365 145.656 162.604 145.482 162.808 145.258C163.011 145.034 163.172 144.766 163.292 144.453C163.417 144.135 163.479 143.784 163.479 143.398C163.479 143.013 163.417 142.664 163.292 142.352C163.172 142.039 163.011 141.771 162.808 141.547C162.604 141.323 162.367 141.151 162.097 141.031C161.826 140.906 161.539 140.844 161.237 140.844C160.94 140.844 160.654 140.906 160.378 141.031C160.107 141.151 159.87 141.323 159.667 141.547C159.469 141.771 159.308 142.039 159.183 142.352C159.058 142.664 158.995 143.013 158.995 143.398ZM158.839 147H157.956V136.922H159.159V140.68C159.31 140.497 159.492 140.339 159.706 140.203C159.888 140.083 160.112 139.974 160.378 139.875C160.644 139.771 160.956 139.719 161.315 139.719C161.774 139.719 162.209 139.81 162.62 139.992C163.032 140.174 163.388 140.43 163.69 140.758C163.998 141.081 164.24 141.466 164.417 141.914C164.594 142.362 164.683 142.857 164.683 143.398C164.683 143.94 164.594 144.438 164.417 144.891C164.24 145.339 163.998 145.727 163.69 146.055C163.388 146.378 163.032 146.63 162.62 146.812C162.214 146.99 161.779 147.078 161.315 147.078C160.951 147.078 160.636 147.036 160.37 146.953C160.104 146.865 159.883 146.763 159.706 146.648C159.492 146.518 159.31 146.37 159.159 146.203L158.839 147ZM172.08 145.078C171.96 145.333 171.809 145.586 171.627 145.836C171.444 146.081 171.231 146.294 170.986 146.477C170.741 146.654 170.463 146.799 170.15 146.914C169.843 147.023 169.499 147.078 169.119 147.078C168.661 147.078 168.226 146.99 167.814 146.812C167.403 146.63 167.043 146.378 166.736 146.055C166.434 145.727 166.194 145.339 166.017 144.891C165.846 144.443 165.76 143.945 165.76 143.398C165.76 142.857 165.846 142.362 166.017 141.914C166.194 141.466 166.431 141.081 166.728 140.758C167.03 140.43 167.382 140.174 167.783 139.992C168.184 139.81 168.603 139.719 169.041 139.719C169.478 139.719 169.89 139.805 170.275 139.977C170.666 140.148 171.004 140.393 171.291 140.711C171.582 141.023 171.812 141.401 171.978 141.844C172.15 142.286 172.236 142.779 172.236 143.32C172.236 143.424 172.231 143.516 172.221 143.594C172.21 143.667 172.2 143.729 172.189 143.781C172.179 143.844 172.168 143.904 172.158 143.961H167.041C167.062 144.216 167.132 144.466 167.252 144.711C167.377 144.956 167.53 145.169 167.713 145.352C167.9 145.534 168.116 145.682 168.361 145.797C168.611 145.906 168.864 145.961 169.119 145.961C169.343 145.961 169.541 145.93 169.713 145.867C169.89 145.799 170.051 145.724 170.197 145.641C170.343 145.557 170.463 145.466 170.556 145.367C170.655 145.263 170.736 145.167 170.799 145.078H172.08ZM169.041 140.844C168.796 140.844 168.562 140.896 168.338 141C168.119 141.104 167.918 141.247 167.736 141.43C167.559 141.612 167.408 141.831 167.283 142.086C167.163 142.341 167.082 142.62 167.041 142.922H170.955C170.872 142.281 170.65 141.776 170.291 141.406C169.937 141.031 169.52 140.844 169.041 140.844ZM178.375 147H177.171V139.797H178.375V147ZM177.015 137.766C177.015 137.542 177.085 137.359 177.226 137.219C177.372 137.073 177.552 137 177.765 137C177.989 137 178.171 137.073 178.312 137.219C178.458 137.359 178.531 137.542 178.531 137.766C178.531 137.979 178.458 138.159 178.312 138.305C178.171 138.451 177.989 138.523 177.765 138.523C177.552 138.523 177.372 138.451 177.226 138.305C177.085 138.159 177.015 137.979 177.015 137.766ZM183.686 139.719C184.071 139.719 184.431 139.797 184.764 139.953C185.103 140.109 185.399 140.323 185.655 140.594C185.91 140.865 186.11 141.193 186.256 141.578C186.407 141.958 186.483 142.38 186.483 142.844V147H185.287V142.844C185.287 142.547 185.238 142.276 185.139 142.031C185.045 141.781 184.918 141.568 184.756 141.391C184.595 141.214 184.407 141.078 184.194 140.984C183.985 140.891 183.761 140.844 183.522 140.844C182.954 140.844 182.493 141.026 182.139 141.391C181.785 141.75 181.608 142.234 181.608 142.844V147H180.405V139.797H181.287L181.608 140.602C181.759 140.44 181.933 140.297 182.131 140.172C182.313 140.052 182.532 139.948 182.787 139.859C183.043 139.766 183.342 139.719 183.686 139.719ZM192.543 137.883H193.582V139.797H195.184V140.922H193.582V144.68C193.582 145.086 193.691 145.401 193.91 145.625C194.129 145.849 194.421 145.961 194.785 145.961C194.889 145.961 194.986 145.951 195.074 145.93C195.116 145.919 195.152 145.904 195.184 145.883V146.922C195.132 146.953 195.074 146.979 195.012 147C194.871 147.052 194.689 147.078 194.465 147.078C194.189 147.078 193.926 147.021 193.676 146.906C193.426 146.786 193.204 146.622 193.012 146.414C192.819 146.206 192.665 145.956 192.551 145.664C192.441 145.372 192.387 145.044 192.387 144.68V140.922H191.105V139.797H191.668C192.257 139.797 192.548 139.505 192.543 138.922V137.883ZM197.464 143.398C197.464 143.784 197.521 144.135 197.636 144.453C197.755 144.766 197.917 145.034 198.12 145.258C198.323 145.482 198.555 145.656 198.815 145.781C199.081 145.901 199.352 145.961 199.628 145.961C199.904 145.961 200.172 145.901 200.433 145.781C200.693 145.656 200.922 145.482 201.12 145.258C201.318 145.034 201.477 144.766 201.597 144.453C201.722 144.135 201.784 143.784 201.784 143.398C201.784 143.013 201.722 142.664 201.597 142.352C201.477 142.039 201.318 141.771 201.12 141.547C200.922 141.323 200.693 141.151 200.433 141.031C200.172 140.906 199.904 140.844 199.628 140.844C199.352 140.844 199.081 140.906 198.815 141.031C198.555 141.151 198.323 141.323 198.12 141.547C197.917 141.771 197.755 142.039 197.636 142.352C197.521 142.664 197.464 143.013 197.464 143.398ZM202.987 143.398C202.987 143.94 202.899 144.438 202.722 144.891C202.544 145.339 202.305 145.727 202.003 146.055C201.701 146.378 201.344 146.63 200.933 146.812C200.521 146.99 200.086 147.078 199.628 147.078C199.169 147.078 198.735 146.99 198.323 146.812C197.912 146.63 197.552 146.378 197.245 146.055C196.943 145.727 196.703 145.339 196.526 144.891C196.354 144.443 196.268 143.945 196.268 143.398C196.268 142.857 196.354 142.362 196.526 141.914C196.703 141.466 196.943 141.081 197.245 140.758C197.552 140.43 197.912 140.174 198.323 139.992C198.735 139.81 199.169 139.719 199.628 139.719C200.086 139.719 200.521 139.81 200.933 139.992C201.344 140.174 201.701 140.43 202.003 140.758C202.305 141.081 202.544 141.466 202.722 141.914C202.899 142.362 202.987 142.857 202.987 143.398ZM207.345 147.078C206.96 147.078 206.598 147.003 206.259 146.852C205.926 146.695 205.629 146.482 205.369 146.211C205.114 145.935 204.911 145.607 204.759 145.227C204.614 144.841 204.541 144.419 204.541 143.961V139.797H205.744V143.961C205.744 144.258 205.788 144.529 205.877 144.773C205.97 145.018 206.095 145.229 206.252 145.406C206.413 145.583 206.601 145.721 206.814 145.82C207.028 145.914 207.257 145.961 207.502 145.961C208.069 145.961 208.53 145.781 208.884 145.422C209.244 145.057 209.424 144.57 209.424 143.961V139.797H210.619V147H209.744L209.424 146.203C209.273 146.375 209.095 146.523 208.892 146.648C208.71 146.768 208.491 146.87 208.236 146.953C207.986 147.036 207.689 147.078 207.345 147.078ZM215.532 140.844C215.256 140.844 214.985 140.906 214.719 141.031C214.459 141.151 214.227 141.323 214.024 141.547C213.821 141.771 213.659 142.039 213.54 142.352C213.425 142.664 213.368 143.013 213.368 143.398C213.368 143.784 213.425 144.135 213.54 144.453C213.659 144.766 213.821 145.034 214.024 145.258C214.227 145.482 214.459 145.656 214.719 145.781C214.985 145.901 215.256 145.961 215.532 145.961C215.766 145.961 215.988 145.919 216.196 145.836C216.404 145.747 216.589 145.635 216.751 145.5C216.917 145.359 217.058 145.198 217.172 145.016C217.292 144.833 217.386 144.641 217.454 144.438H218.649C218.566 144.802 218.433 145.146 218.251 145.469C218.068 145.786 217.842 146.065 217.571 146.305C217.3 146.544 216.99 146.734 216.641 146.875C216.297 147.01 215.928 147.078 215.532 147.078C215.073 147.078 214.639 146.99 214.227 146.812C213.816 146.63 213.456 146.378 213.149 146.055C212.847 145.727 212.607 145.339 212.43 144.891C212.258 144.443 212.172 143.945 212.172 143.398C212.172 142.857 212.258 142.362 212.43 141.914C212.607 141.466 212.847 141.081 213.149 140.758C213.456 140.43 213.816 140.174 214.227 139.992C214.639 139.81 215.073 139.719 215.532 139.719C215.928 139.719 216.297 139.789 216.641 139.93C216.99 140.065 217.3 140.255 217.571 140.5C217.842 140.74 218.068 141.018 218.251 141.336C218.433 141.654 218.566 141.995 218.649 142.359H217.454C217.391 142.156 217.3 141.966 217.18 141.789C217.06 141.607 216.917 141.445 216.751 141.305C216.589 141.164 216.404 141.052 216.196 140.969C215.988 140.885 215.766 140.844 215.532 140.844ZM223.476 139.719C223.861 139.719 224.221 139.797 224.554 139.953C224.893 140.109 225.19 140.323 225.445 140.594C225.7 140.865 225.903 141.193 226.054 141.578C226.205 141.958 226.281 142.38 226.281 142.844V147H225.078V142.844C225.078 142.547 225.028 142.276 224.929 142.031C224.835 141.781 224.708 141.568 224.546 141.391C224.39 141.214 224.205 141.078 223.992 140.984C223.778 140.891 223.554 140.844 223.32 140.844C222.752 140.844 222.288 141.026 221.929 141.391C221.575 141.75 221.398 142.234 221.398 142.844V147H220.195V136.922H221.398V140.68C221.549 140.497 221.726 140.339 221.929 140.203C222.111 140.083 222.328 139.974 222.578 139.875C222.833 139.771 223.132 139.719 223.476 139.719ZM234.099 147H233.138L230.732 139.797H232.013L233.693 144.922L235.294 139.797H236.099L237.693 144.922L239.372 139.797H240.653L238.255 147H237.294L235.693 141.883L234.099 147ZM243.004 147H241.801V139.797H243.004V147ZM241.645 137.766C241.645 137.542 241.715 137.359 241.855 137.219C242.001 137.073 242.181 137 242.395 137C242.618 137 242.801 137.073 242.941 137.219C243.087 137.359 243.16 137.542 243.16 137.766C243.16 137.979 243.087 138.159 242.941 138.305C242.801 138.451 242.618 138.523 242.395 138.523C242.181 138.523 242.001 138.451 241.855 138.305C241.715 138.159 241.645 137.979 241.645 137.766ZM245.753 137.883H246.792V139.797H248.393V140.922H246.792V144.68C246.792 145.086 246.901 145.401 247.12 145.625C247.339 145.849 247.63 145.961 247.995 145.961C248.099 145.961 248.195 145.951 248.284 145.93C248.326 145.919 248.362 145.904 248.393 145.883V146.922C248.341 146.953 248.284 146.979 248.221 147C248.081 147.052 247.899 147.078 247.675 147.078C247.399 147.078 247.136 147.021 246.886 146.906C246.636 146.786 246.414 146.622 246.221 146.414C246.029 146.206 245.875 145.956 245.761 145.664C245.651 145.372 245.596 145.044 245.596 144.68V140.922H244.315V139.797H244.878C245.466 139.797 245.758 139.505 245.753 138.922V137.883ZM253.47 139.719C253.856 139.719 254.215 139.797 254.549 139.953C254.887 140.109 255.184 140.323 255.439 140.594C255.694 140.865 255.897 141.193 256.049 141.578C256.2 141.958 256.275 142.38 256.275 142.844V147H255.072V142.844C255.072 142.547 255.022 142.276 254.924 142.031C254.83 141.781 254.702 141.568 254.541 141.391C254.384 141.214 254.2 141.078 253.986 140.984C253.772 140.891 253.549 140.844 253.314 140.844C252.746 140.844 252.283 141.026 251.924 141.391C251.569 141.75 251.392 142.234 251.392 142.844V147H250.189V136.922H251.392V140.68C251.543 140.497 251.72 140.339 251.924 140.203C252.106 140.083 252.322 139.974 252.572 139.875C252.827 139.771 253.127 139.719 253.47 139.719ZM260.726 139.797H262.007L264.171 145.32L266.327 139.797H267.609L264.492 147.641C264.205 148.365 263.903 148.878 263.585 149.18C263.273 149.487 262.882 149.641 262.413 149.641C262.351 149.641 262.291 149.638 262.234 149.633C262.182 149.628 262.13 149.62 262.077 149.609C262.025 149.599 261.976 149.583 261.929 149.562V148.602C262.294 148.602 262.564 148.521 262.742 148.359C262.924 148.198 263.08 147.958 263.21 147.641L263.531 146.844L260.726 139.797ZM269.483 143.398C269.483 143.784 269.54 144.135 269.654 144.453C269.774 144.766 269.936 145.034 270.139 145.258C270.342 145.482 270.574 145.656 270.834 145.781C271.1 145.901 271.371 145.961 271.647 145.961C271.923 145.961 272.191 145.901 272.451 145.781C272.712 145.656 272.941 145.482 273.139 145.258C273.337 145.034 273.496 144.766 273.615 144.453C273.74 144.135 273.803 143.784 273.803 143.398C273.803 143.013 273.74 142.664 273.615 142.352C273.496 142.039 273.337 141.771 273.139 141.547C272.941 141.323 272.712 141.151 272.451 141.031C272.191 140.906 271.923 140.844 271.647 140.844C271.371 140.844 271.1 140.906 270.834 141.031C270.574 141.151 270.342 141.323 270.139 141.547C269.936 141.771 269.774 142.039 269.654 142.352C269.54 142.664 269.483 143.013 269.483 143.398ZM275.006 143.398C275.006 143.94 274.918 144.438 274.74 144.891C274.563 145.339 274.324 145.727 274.022 146.055C273.72 146.378 273.363 146.63 272.951 146.812C272.54 146.99 272.105 147.078 271.647 147.078C271.188 147.078 270.753 146.99 270.342 146.812C269.931 146.63 269.571 146.378 269.264 146.055C268.962 145.727 268.722 145.339 268.545 144.891C268.373 144.443 268.287 143.945 268.287 143.398C268.287 142.857 268.373 142.362 268.545 141.914C268.722 141.466 268.962 141.081 269.264 140.758C269.571 140.43 269.931 140.174 270.342 139.992C270.753 139.81 271.188 139.719 271.647 139.719C272.105 139.719 272.54 139.81 272.951 139.992C273.363 140.174 273.72 140.43 274.022 140.758C274.324 141.081 274.563 141.466 274.74 141.914C274.918 142.362 275.006 142.857 275.006 143.398ZM279.364 147.078C278.979 147.078 278.617 147.003 278.278 146.852C277.945 146.695 277.648 146.482 277.388 146.211C277.133 145.935 276.929 145.607 276.778 145.227C276.633 144.841 276.56 144.419 276.56 143.961V139.797H277.763V143.961C277.763 144.258 277.807 144.529 277.896 144.773C277.989 145.018 278.114 145.229 278.271 145.406C278.432 145.583 278.62 145.721 278.833 145.82C279.047 145.914 279.276 145.961 279.521 145.961C280.088 145.961 280.549 145.781 280.903 145.422C281.263 145.057 281.442 144.57 281.442 143.961V139.797H282.638V147H281.763L281.442 146.203C281.291 146.375 281.114 146.523 280.911 146.648C280.729 146.768 280.51 146.87 280.255 146.953C280.005 147.036 279.708 147.078 279.364 147.078ZM292.776 144.922C292.776 145.219 292.716 145.497 292.596 145.758C292.482 146.018 292.318 146.247 292.104 146.445C291.891 146.643 291.633 146.799 291.331 146.914C291.029 147.023 290.685 147.078 290.3 147.078C289.497 147.078 288.867 146.865 288.409 146.438C287.951 146.01 287.701 145.479 287.659 144.844H288.862C288.904 145.161 289.042 145.427 289.276 145.641C289.51 145.854 289.852 145.961 290.3 145.961C290.706 145.961 291.021 145.857 291.245 145.648C291.469 145.44 291.581 145.198 291.581 144.922C291.581 144.656 291.487 144.456 291.3 144.32C291.112 144.185 290.88 144.078 290.604 144C290.328 143.922 290.026 143.849 289.698 143.781C289.375 143.708 289.073 143.604 288.792 143.469C288.516 143.328 288.284 143.13 288.096 142.875C287.909 142.615 287.815 142.255 287.815 141.797C287.815 141.521 287.872 141.258 287.987 141.008C288.107 140.758 288.271 140.536 288.479 140.344C288.688 140.151 288.938 140 289.229 139.891C289.526 139.776 289.857 139.719 290.221 139.719C290.987 139.719 291.581 139.919 292.003 140.32C292.425 140.721 292.656 141.242 292.698 141.883H291.495C291.453 141.565 291.331 141.312 291.128 141.125C290.925 140.938 290.622 140.844 290.221 140.844C289.857 140.844 289.565 140.943 289.346 141.141C289.128 141.333 289.018 141.552 289.018 141.797C289.018 142.062 289.112 142.263 289.3 142.398C289.487 142.534 289.719 142.643 289.995 142.727C290.271 142.805 290.57 142.878 290.893 142.945C291.221 143.013 291.524 143.117 291.8 143.258C292.081 143.393 292.313 143.594 292.495 143.859C292.682 144.12 292.776 144.474 292.776 144.922ZM297.681 139.719C298.067 139.719 298.426 139.797 298.759 139.953C299.098 140.109 299.395 140.323 299.65 140.594C299.905 140.865 300.108 141.193 300.259 141.578C300.41 141.958 300.486 142.38 300.486 142.844V147H299.283V142.844C299.283 142.547 299.233 142.276 299.134 142.031C299.041 141.781 298.913 141.568 298.752 141.391C298.595 141.214 298.41 141.078 298.197 140.984C297.983 140.891 297.759 140.844 297.525 140.844C296.957 140.844 296.494 141.026 296.134 141.391C295.78 141.75 295.603 142.234 295.603 142.844V147H294.4V136.922H295.603V140.68C295.754 140.497 295.931 140.339 296.134 140.203C296.317 140.083 296.533 139.974 296.783 139.875C297.038 139.771 297.337 139.719 297.681 139.719ZM303.149 143.398C303.149 143.784 303.206 144.135 303.321 144.453C303.441 144.766 303.602 145.034 303.805 145.258C304.008 145.482 304.24 145.656 304.5 145.781C304.766 145.901 305.037 145.961 305.313 145.961C305.589 145.961 305.857 145.901 306.118 145.781C306.378 145.656 306.607 145.482 306.805 145.258C307.003 145.034 307.162 144.766 307.282 144.453C307.407 144.135 307.469 143.784 307.469 143.398C307.469 143.013 307.407 142.664 307.282 142.352C307.162 142.039 307.003 141.771 306.805 141.547C306.607 141.323 306.378 141.151 306.118 141.031C305.857 140.906 305.589 140.844 305.313 140.844C305.037 140.844 304.766 140.906 304.5 141.031C304.24 141.151 304.008 141.323 303.805 141.547C303.602 141.771 303.441 142.039 303.321 142.352C303.206 142.664 303.149 143.013 303.149 143.398ZM308.672 143.398C308.672 143.94 308.584 144.438 308.407 144.891C308.23 145.339 307.99 145.727 307.688 146.055C307.386 146.378 307.029 146.63 306.618 146.812C306.206 146.99 305.771 147.078 305.313 147.078C304.855 147.078 304.42 146.99 304.008 146.812C303.597 146.63 303.237 146.378 302.93 146.055C302.628 145.727 302.388 145.339 302.211 144.891C302.04 144.443 301.954 143.945 301.954 143.398C301.954 142.857 302.04 142.362 302.211 141.914C302.388 141.466 302.628 141.081 302.93 140.758C303.237 140.43 303.597 140.174 304.008 139.992C304.42 139.81 304.855 139.719 305.313 139.719C305.771 139.719 306.206 139.81 306.618 139.992C307.029 140.174 307.386 140.43 307.688 140.758C307.99 141.081 308.23 141.466 308.407 141.914C308.584 142.362 308.672 142.857 308.672 143.398ZM313.663 140.922H313.343C312.775 140.922 312.314 141.104 311.96 141.469C311.606 141.828 311.429 142.312 311.429 142.922V147H310.226V139.797H311.109L311.429 140.602C311.58 140.44 311.755 140.297 311.952 140.172C312.135 140.052 312.353 139.948 312.609 139.859C312.864 139.766 313.163 139.719 313.507 139.719H313.663V140.922ZM315.693 137.883H316.733V139.797H318.334V140.922H316.733V144.68C316.733 145.086 316.842 145.401 317.061 145.625C317.279 145.849 317.571 145.961 317.936 145.961C318.04 145.961 318.136 145.951 318.225 145.93C318.266 145.919 318.303 145.904 318.334 145.883V146.922C318.282 146.953 318.225 146.979 318.162 147C318.022 147.052 317.839 147.078 317.615 147.078C317.339 147.078 317.076 147.021 316.826 146.906C316.576 146.786 316.355 146.622 316.162 146.414C315.97 146.206 315.816 145.956 315.701 145.664C315.592 145.372 315.537 145.044 315.537 144.68V140.922H314.256V139.797H314.818C315.407 139.797 315.699 139.505 315.693 138.922V137.883ZM321.333 147H320.13V136.922H321.333V147ZM322.558 139.797H323.84L326.004 145.32L328.16 139.797H329.441L326.324 147.641C326.038 148.365 325.736 148.878 325.418 149.18C325.105 149.487 324.715 149.641 324.246 149.641C324.183 149.641 324.124 149.638 324.066 149.633C324.014 149.628 323.962 149.62 323.91 149.609C323.858 149.599 323.808 149.583 323.762 149.562V148.602C324.126 148.602 324.397 148.521 324.574 148.359C324.756 148.198 324.913 147.958 325.043 147.641L325.363 146.844L322.558 139.797ZM329.635 146.281C329.635 146.036 329.706 145.841 329.846 145.695C329.992 145.549 330.188 145.477 330.432 145.477C330.677 145.477 330.87 145.549 331.01 145.695C331.156 145.841 331.229 146.036 331.229 146.281C331.229 146.526 331.156 146.721 331.01 146.867C330.87 147.008 330.677 147.078 330.432 147.078C330.188 147.078 329.992 147.008 329.846 146.867C329.706 146.721 329.635 146.526 329.635 146.281ZM103.615 160.719L101.529 168H100.654L97.5292 157.922H98.8964L101.131 165.203L103.217 157.922H104.014L106.092 165.203L108.334 157.922H109.693L106.576 168H105.693L103.615 160.719ZM114.208 160.719C114.593 160.719 114.953 160.797 115.286 160.953C115.624 161.109 115.921 161.323 116.177 161.594C116.432 161.865 116.635 162.193 116.786 162.578C116.937 162.958 117.012 163.38 117.012 163.844V168H115.809V163.844C115.809 163.547 115.76 163.276 115.661 163.031C115.567 162.781 115.44 162.568 115.278 162.391C115.122 162.214 114.937 162.078 114.723 161.984C114.51 161.891 114.286 161.844 114.052 161.844C113.484 161.844 113.02 162.026 112.661 162.391C112.307 162.75 112.13 163.234 112.13 163.844V168H110.927V157.922H112.13V161.68C112.281 161.497 112.458 161.339 112.661 161.203C112.843 161.083 113.059 160.974 113.309 160.875C113.565 160.771 113.864 160.719 114.208 160.719ZM120.16 168H118.957V160.797H120.16V168ZM118.8 158.766C118.8 158.542 118.871 158.359 119.011 158.219C119.157 158.073 119.337 158 119.55 158C119.774 158 119.957 158.073 120.097 158.219C120.243 158.359 120.316 158.542 120.316 158.766C120.316 158.979 120.243 159.159 120.097 159.305C119.957 159.451 119.774 159.523 119.55 159.523C119.337 159.523 119.157 159.451 119.011 159.305C118.871 159.159 118.8 158.979 118.8 158.766ZM123.471 168H122.268V157.922H123.471V168ZM131.423 166.078C131.303 166.333 131.152 166.586 130.97 166.836C130.788 167.081 130.574 167.294 130.329 167.477C130.085 167.654 129.806 167.799 129.493 167.914C129.186 168.023 128.842 168.078 128.462 168.078C128.004 168.078 127.569 167.99 127.158 167.812C126.746 167.63 126.387 167.378 126.079 167.055C125.777 166.727 125.538 166.339 125.361 165.891C125.189 165.443 125.103 164.945 125.103 164.398C125.103 163.857 125.189 163.362 125.361 162.914C125.538 162.466 125.775 162.081 126.072 161.758C126.374 161.43 126.725 161.174 127.126 160.992C127.527 160.81 127.947 160.719 128.384 160.719C128.822 160.719 129.233 160.805 129.618 160.977C130.009 161.148 130.348 161.393 130.634 161.711C130.926 162.023 131.155 162.401 131.322 162.844C131.493 163.286 131.579 163.779 131.579 164.32C131.579 164.424 131.574 164.516 131.564 164.594C131.553 164.667 131.543 164.729 131.533 164.781C131.522 164.844 131.512 164.904 131.501 164.961H126.384C126.405 165.216 126.475 165.466 126.595 165.711C126.72 165.956 126.874 166.169 127.056 166.352C127.243 166.534 127.46 166.682 127.704 166.797C127.954 166.906 128.207 166.961 128.462 166.961C128.686 166.961 128.884 166.93 129.056 166.867C129.233 166.799 129.394 166.724 129.54 166.641C129.686 166.557 129.806 166.466 129.9 166.367C129.999 166.263 130.079 166.167 130.142 166.078H131.423ZM128.384 161.844C128.139 161.844 127.905 161.896 127.681 162C127.462 162.104 127.262 162.247 127.079 162.43C126.902 162.612 126.751 162.831 126.626 163.086C126.506 163.341 126.426 163.62 126.384 163.922H130.298C130.215 163.281 129.993 162.776 129.634 162.406C129.28 162.031 128.863 161.844 128.384 161.844ZM135.632 160.797H136.913L139.077 166.32L141.233 160.797H142.515L139.397 168.641C139.111 169.365 138.809 169.878 138.491 170.18C138.179 170.487 137.788 170.641 137.319 170.641C137.257 170.641 137.197 170.638 137.14 170.633C137.088 170.628 137.035 170.62 136.983 170.609C136.931 170.599 136.882 170.583 136.835 170.562V169.602C137.2 169.602 137.47 169.521 137.647 169.359C137.83 169.198 137.986 168.958 138.116 168.641L138.437 167.844L135.632 160.797ZM144.389 164.398C144.389 164.784 144.446 165.135 144.56 165.453C144.68 165.766 144.842 166.034 145.045 166.258C145.248 166.482 145.48 166.656 145.74 166.781C146.006 166.901 146.277 166.961 146.553 166.961C146.829 166.961 147.097 166.901 147.357 166.781C147.618 166.656 147.847 166.482 148.045 166.258C148.243 166.034 148.402 165.766 148.521 165.453C148.646 165.135 148.709 164.784 148.709 164.398C148.709 164.013 148.646 163.664 148.521 163.352C148.402 163.039 148.243 162.771 148.045 162.547C147.847 162.323 147.618 162.151 147.357 162.031C147.097 161.906 146.829 161.844 146.553 161.844C146.277 161.844 146.006 161.906 145.74 162.031C145.48 162.151 145.248 162.323 145.045 162.547C144.842 162.771 144.68 163.039 144.56 163.352C144.446 163.664 144.389 164.013 144.389 164.398ZM149.912 164.398C149.912 164.94 149.823 165.438 149.646 165.891C149.469 166.339 149.23 166.727 148.928 167.055C148.625 167.378 148.269 167.63 147.857 167.812C147.446 167.99 147.011 168.078 146.553 168.078C146.094 168.078 145.659 167.99 145.248 167.812C144.836 167.63 144.477 167.378 144.17 167.055C143.868 166.727 143.628 166.339 143.451 165.891C143.279 165.443 143.193 164.945 143.193 164.398C143.193 163.857 143.279 163.362 143.451 162.914C143.628 162.466 143.868 162.081 144.17 161.758C144.477 161.43 144.836 161.174 145.248 160.992C145.659 160.81 146.094 160.719 146.553 160.719C147.011 160.719 147.446 160.81 147.857 160.992C148.269 161.174 148.625 161.43 148.928 161.758C149.23 162.081 149.469 162.466 149.646 162.914C149.823 163.362 149.912 163.857 149.912 164.398ZM154.27 168.078C153.885 168.078 153.523 168.003 153.184 167.852C152.851 167.695 152.554 167.482 152.294 167.211C152.038 166.935 151.835 166.607 151.684 166.227C151.538 165.841 151.466 165.419 151.466 164.961V160.797H152.669V164.961C152.669 165.258 152.713 165.529 152.801 165.773C152.895 166.018 153.02 166.229 153.176 166.406C153.338 166.583 153.525 166.721 153.739 166.82C153.952 166.914 154.182 166.961 154.426 166.961C154.994 166.961 155.455 166.781 155.809 166.422C156.169 166.057 156.348 165.57 156.348 164.961V160.797H157.544V168H156.669L156.348 167.203C156.197 167.375 156.02 167.523 155.817 167.648C155.635 167.768 155.416 167.87 155.161 167.953C154.911 168.036 154.614 168.078 154.27 168.078ZM165.448 168H164.487L162.08 160.797H163.362L165.041 165.922L166.643 160.797H167.448L169.041 165.922L170.721 160.797H172.002L169.604 168H168.643L167.041 162.883L165.448 168ZM175.868 160.719C176.264 160.719 176.629 160.786 176.962 160.922C177.301 161.052 177.59 161.229 177.829 161.453C178.069 161.677 178.254 161.94 178.384 162.242C178.519 162.539 178.587 162.859 178.587 163.203V168H177.712L177.392 167.203C177.23 167.375 177.048 167.523 176.845 167.648C176.663 167.768 176.439 167.87 176.173 167.953C175.907 168.036 175.592 168.078 175.228 168.078C174.863 168.078 174.535 168.023 174.243 167.914C173.952 167.799 173.702 167.643 173.493 167.445C173.285 167.247 173.121 167.018 173.001 166.758C172.887 166.497 172.829 166.219 172.829 165.922C172.829 165.578 172.897 165.266 173.032 164.984C173.173 164.703 173.413 164.458 173.751 164.25C174.095 164.042 174.564 163.883 175.157 163.773C175.751 163.659 176.496 163.602 177.392 163.602V163.203C177.392 162.839 177.249 162.521 176.962 162.25C176.681 161.979 176.316 161.844 175.868 161.844C175.42 161.844 175.09 161.938 174.876 162.125C174.663 162.307 174.514 162.56 174.431 162.883H173.15C173.191 162.586 173.282 162.307 173.423 162.047C173.564 161.781 173.749 161.549 173.978 161.352C174.207 161.154 174.478 161 174.79 160.891C175.103 160.776 175.462 160.719 175.868 160.719ZM175.228 166.961C175.545 166.961 175.837 166.911 176.103 166.812C176.374 166.708 176.603 166.578 176.79 166.422C176.978 166.26 177.124 166.081 177.228 165.883C177.337 165.685 177.392 165.484 177.392 165.281V164.719C176.668 164.719 176.087 164.75 175.65 164.812C175.212 164.87 174.871 164.956 174.626 165.07C174.387 165.18 174.228 165.312 174.15 165.469C174.072 165.62 174.032 165.797 174.032 166C174.032 166.245 174.139 166.466 174.353 166.664C174.572 166.862 174.863 166.961 175.228 166.961ZM181.742 168H180.539V160.797H181.742V168ZM180.383 158.766C180.383 158.542 180.453 158.359 180.594 158.219C180.74 158.073 180.919 158 181.133 158C181.357 158 181.539 158.073 181.68 158.219C181.826 158.359 181.899 158.542 181.899 158.766C181.899 158.979 181.826 159.159 181.68 159.305C181.539 159.451 181.357 159.523 181.133 159.523C180.919 159.523 180.74 159.451 180.594 159.305C180.453 159.159 180.383 158.979 180.383 158.766ZM184.491 158.883H185.53V160.797H187.132V161.922H185.53V165.68C185.53 166.086 185.64 166.401 185.858 166.625C186.077 166.849 186.369 166.961 186.733 166.961C186.837 166.961 186.934 166.951 187.022 166.93C187.064 166.919 187.101 166.904 187.132 166.883V167.922C187.08 167.953 187.022 167.979 186.96 168C186.819 168.052 186.637 168.078 186.413 168.078C186.137 168.078 185.874 168.021 185.624 167.906C185.374 167.786 185.153 167.622 184.96 167.414C184.767 167.206 184.614 166.956 184.499 166.664C184.39 166.372 184.335 166.044 184.335 165.68V161.922H183.054V160.797H183.616C184.205 160.797 184.496 160.505 184.491 159.922V158.883ZM189.17 168.078C188.925 168.078 188.73 168.008 188.584 167.867C188.443 167.721 188.373 167.526 188.373 167.281C188.373 167.036 188.443 166.841 188.584 166.695C188.73 166.549 188.925 166.477 189.17 166.477C189.414 166.477 189.607 166.549 189.748 166.695C189.894 166.841 189.967 167.036 189.967 167.281C189.967 167.667 189.899 168 189.763 168.281C189.633 168.562 189.49 168.794 189.334 168.977C189.141 169.19 188.928 169.372 188.693 169.523L188.529 169.281C188.633 169.177 188.73 169.065 188.818 168.945C188.891 168.841 188.961 168.716 189.029 168.57C189.102 168.424 189.149 168.26 189.17 168.078ZM197.792 161.844C197.516 161.844 197.246 161.906 196.98 162.031C196.72 162.151 196.488 162.323 196.285 162.547C196.082 162.771 195.92 163.039 195.8 163.352C195.686 163.664 195.628 164.013 195.628 164.398C195.628 164.784 195.686 165.135 195.8 165.453C195.92 165.766 196.082 166.034 196.285 166.258C196.488 166.482 196.72 166.656 196.98 166.781C197.246 166.901 197.516 166.961 197.792 166.961C198.027 166.961 198.248 166.919 198.457 166.836C198.665 166.747 198.85 166.635 199.011 166.5C199.178 166.359 199.318 166.198 199.433 166.016C199.553 165.833 199.647 165.641 199.714 165.438H200.91C200.826 165.802 200.693 166.146 200.511 166.469C200.329 166.786 200.102 167.065 199.832 167.305C199.561 167.544 199.251 167.734 198.902 167.875C198.558 168.01 198.188 168.078 197.792 168.078C197.334 168.078 196.899 167.99 196.488 167.812C196.076 167.63 195.717 167.378 195.41 167.055C195.108 166.727 194.868 166.339 194.691 165.891C194.519 165.443 194.433 164.945 194.433 164.398C194.433 163.857 194.519 163.362 194.691 162.914C194.868 162.466 195.108 162.081 195.41 161.758C195.717 161.43 196.076 161.174 196.488 160.992C196.899 160.81 197.334 160.719 197.792 160.719C198.188 160.719 198.558 160.789 198.902 160.93C199.251 161.065 199.561 161.255 199.832 161.5C200.102 161.74 200.329 162.018 200.511 162.336C200.693 162.654 200.826 162.995 200.91 163.359H199.714C199.652 163.156 199.561 162.966 199.441 162.789C199.321 162.607 199.178 162.445 199.011 162.305C198.85 162.164 198.665 162.052 198.457 161.969C198.248 161.885 198.027 161.844 197.792 161.844ZM205.737 160.719C206.122 160.719 206.481 160.797 206.815 160.953C207.153 161.109 207.45 161.323 207.705 161.594C207.961 161.865 208.164 162.193 208.315 162.578C208.466 162.958 208.541 163.38 208.541 163.844V168H207.338V163.844C207.338 163.547 207.289 163.276 207.19 163.031C207.096 162.781 206.968 162.568 206.807 162.391C206.651 162.214 206.466 162.078 206.252 161.984C206.039 161.891 205.815 161.844 205.58 161.844C205.013 161.844 204.549 162.026 204.19 162.391C203.836 162.75 203.659 163.234 203.659 163.844V168H202.455V157.922H203.659V161.68C203.81 161.497 203.987 161.339 204.19 161.203C204.372 161.083 204.588 160.974 204.838 160.875C205.093 160.771 205.393 160.719 205.737 160.719ZM216.329 166.078C216.209 166.333 216.058 166.586 215.876 166.836C215.694 167.081 215.48 167.294 215.236 167.477C214.991 167.654 214.712 167.799 214.4 167.914C214.092 168.023 213.749 168.078 213.368 168.078C212.91 168.078 212.475 167.99 212.064 167.812C211.652 167.63 211.293 167.378 210.986 167.055C210.683 166.727 210.444 166.339 210.267 165.891C210.095 165.443 210.009 164.945 210.009 164.398C210.009 163.857 210.095 163.362 210.267 162.914C210.444 162.466 210.681 162.081 210.978 161.758C211.28 161.43 211.631 161.174 212.032 160.992C212.433 160.81 212.853 160.719 213.29 160.719C213.728 160.719 214.139 160.805 214.525 160.977C214.915 161.148 215.254 161.393 215.54 161.711C215.832 162.023 216.061 162.401 216.228 162.844C216.4 163.286 216.486 163.779 216.486 164.32C216.486 164.424 216.48 164.516 216.47 164.594C216.459 164.667 216.449 164.729 216.439 164.781C216.428 164.844 216.418 164.904 216.407 164.961H211.29C211.311 165.216 211.381 165.466 211.501 165.711C211.626 165.956 211.78 166.169 211.962 166.352C212.15 166.534 212.366 166.682 212.611 166.797C212.861 166.906 213.113 166.961 213.368 166.961C213.592 166.961 213.79 166.93 213.962 166.867C214.139 166.799 214.301 166.724 214.446 166.641C214.592 166.557 214.712 166.466 214.806 166.367C214.905 166.263 214.986 166.167 215.048 166.078H216.329ZM213.29 161.844C213.045 161.844 212.811 161.896 212.587 162C212.368 162.104 212.168 162.247 211.986 162.43C211.808 162.612 211.657 162.831 211.532 163.086C211.413 163.341 211.332 163.62 211.29 163.922H215.204C215.121 163.281 214.9 162.776 214.54 162.406C214.186 162.031 213.769 161.844 213.29 161.844ZM220.914 161.844C220.638 161.844 220.367 161.906 220.102 162.031C219.841 162.151 219.609 162.323 219.406 162.547C219.203 162.771 219.042 163.039 218.922 163.352C218.807 163.664 218.75 164.013 218.75 164.398C218.75 164.784 218.807 165.135 218.922 165.453C219.042 165.766 219.203 166.034 219.406 166.258C219.609 166.482 219.841 166.656 220.102 166.781C220.367 166.901 220.638 166.961 220.914 166.961C221.148 166.961 221.37 166.919 221.578 166.836C221.786 166.747 221.971 166.635 222.133 166.5C222.299 166.359 222.44 166.198 222.555 166.016C222.674 165.833 222.768 165.641 222.836 165.438H224.031C223.948 165.802 223.815 166.146 223.633 166.469C223.451 166.786 223.224 167.065 222.953 167.305C222.682 167.544 222.372 167.734 222.023 167.875C221.68 168.01 221.31 168.078 220.914 168.078C220.456 168.078 220.021 167.99 219.609 167.812C219.198 167.63 218.839 167.378 218.531 167.055C218.229 166.727 217.99 166.339 217.812 165.891C217.641 165.443 217.555 164.945 217.555 164.398C217.555 163.857 217.641 163.362 217.812 162.914C217.99 162.466 218.229 162.081 218.531 161.758C218.839 161.43 219.198 161.174 219.609 160.992C220.021 160.81 220.456 160.719 220.914 160.719C221.31 160.719 221.68 160.789 222.023 160.93C222.372 161.065 222.682 161.255 222.953 161.5C223.224 161.74 223.451 162.018 223.633 162.336C223.815 162.654 223.948 162.995 224.031 163.359H222.836C222.773 163.156 222.682 162.966 222.562 162.789C222.443 162.607 222.299 162.445 222.133 162.305C221.971 162.164 221.786 162.052 221.578 161.969C221.37 161.885 221.148 161.844 220.914 161.844ZM226.78 168H225.577V157.922H226.78V168ZM229.819 168L226.78 164.242L229.499 160.797H230.858L228.14 164.156L231.257 168H229.819ZM236.278 164.398C236.278 164.784 236.335 165.135 236.45 165.453C236.57 165.766 236.731 166.034 236.934 166.258C237.137 166.482 237.369 166.656 237.629 166.781C237.895 166.901 238.166 166.961 238.442 166.961C238.718 166.961 238.986 166.901 239.247 166.781C239.507 166.656 239.736 166.482 239.934 166.258C240.132 166.034 240.291 165.766 240.411 165.453C240.536 165.135 240.598 164.784 240.598 164.398C240.598 164.013 240.536 163.664 240.411 163.352C240.291 163.039 240.132 162.771 239.934 162.547C239.736 162.323 239.507 162.151 239.247 162.031C238.986 161.906 238.718 161.844 238.442 161.844C238.166 161.844 237.895 161.906 237.629 162.031C237.369 162.151 237.137 162.323 236.934 162.547C236.731 162.771 236.57 163.039 236.45 163.352C236.335 163.664 236.278 164.013 236.278 164.398ZM241.801 164.398C241.801 164.94 241.713 165.438 241.536 165.891C241.359 166.339 241.119 166.727 240.817 167.055C240.515 167.378 240.158 167.63 239.747 167.812C239.335 167.99 238.9 168.078 238.442 168.078C237.984 168.078 237.549 167.99 237.137 167.812C236.726 167.63 236.366 167.378 236.059 167.055C235.757 166.727 235.517 166.339 235.34 165.891C235.169 165.443 235.083 164.945 235.083 164.398C235.083 163.857 235.169 163.362 235.34 162.914C235.517 162.466 235.757 162.081 236.059 161.758C236.366 161.43 236.726 161.174 237.137 160.992C237.549 160.81 237.984 160.719 238.442 160.719C238.9 160.719 239.335 160.81 239.747 160.992C240.158 161.174 240.515 161.43 240.817 161.758C241.119 162.081 241.359 162.466 241.536 162.914C241.713 163.362 241.801 163.857 241.801 164.398ZM246.16 168.078C245.774 168.078 245.412 168.003 245.074 167.852C244.74 167.695 244.443 167.482 244.183 167.211C243.928 166.935 243.725 166.607 243.574 166.227C243.428 165.841 243.355 165.419 243.355 164.961V160.797H244.558V164.961C244.558 165.258 244.602 165.529 244.691 165.773C244.785 166.018 244.91 166.229 245.066 166.406C245.227 166.583 245.415 166.721 245.628 166.82C245.842 166.914 246.071 166.961 246.316 166.961C246.884 166.961 247.344 166.781 247.699 166.422C248.058 166.057 248.238 165.57 248.238 164.961V160.797H249.433V168H248.558L248.238 167.203C248.087 167.375 247.91 167.523 247.706 167.648C247.524 167.768 247.305 167.87 247.05 167.953C246.8 168.036 246.503 168.078 246.16 168.078ZM252.182 158.883H253.221V160.797H254.823V161.922H253.221V165.68C253.221 166.086 253.33 166.401 253.549 166.625C253.768 166.849 254.059 166.961 254.424 166.961C254.528 166.961 254.625 166.951 254.713 166.93C254.755 166.919 254.791 166.904 254.823 166.883V167.922C254.77 167.953 254.713 167.979 254.651 168C254.51 168.052 254.328 168.078 254.104 168.078C253.828 168.078 253.565 168.021 253.315 167.906C253.065 167.786 252.843 167.622 252.651 167.414C252.458 167.206 252.304 166.956 252.19 166.664C252.08 166.372 252.026 166.044 252.026 165.68V161.922H250.744V160.797H251.307C251.895 160.797 252.187 160.505 252.182 159.922V158.883ZM260.648 164.398C260.648 164.784 260.706 165.135 260.82 165.453C260.94 165.766 261.102 166.034 261.305 166.258C261.508 166.482 261.74 166.656 262 166.781C262.266 166.901 262.536 166.961 262.812 166.961C263.088 166.961 263.357 166.901 263.617 166.781C263.878 166.656 264.107 166.482 264.305 166.258C264.503 166.034 264.661 165.766 264.781 165.453C264.906 165.135 264.969 164.784 264.969 164.398C264.969 164.013 264.906 163.664 264.781 163.352C264.661 163.039 264.503 162.771 264.305 162.547C264.107 162.323 263.878 162.151 263.617 162.031C263.357 161.906 263.088 161.844 262.812 161.844C262.536 161.844 262.266 161.906 262 162.031C261.74 162.151 261.508 162.323 261.305 162.547C261.102 162.771 260.94 163.039 260.82 163.352C260.706 163.664 260.648 164.013 260.648 164.398ZM266.172 164.398C266.172 164.94 266.083 165.438 265.906 165.891C265.729 166.339 265.49 166.727 265.187 167.055C264.885 167.378 264.529 167.63 264.117 167.812C263.706 167.99 263.271 168.078 262.812 168.078C262.354 168.078 261.919 167.99 261.508 167.812C261.096 167.63 260.737 167.378 260.43 167.055C260.128 166.727 259.888 166.339 259.711 165.891C259.539 165.443 259.453 164.945 259.453 164.398C259.453 163.857 259.539 163.362 259.711 162.914C259.888 162.466 260.128 162.081 260.43 161.758C260.737 161.43 261.096 161.174 261.508 160.992C261.919 160.81 262.354 160.719 262.812 160.719C263.271 160.719 263.706 160.81 264.117 160.992C264.529 161.174 264.885 161.43 265.187 161.758C265.49 162.081 265.729 162.466 265.906 162.914C266.083 163.362 266.172 163.857 266.172 164.398ZM270.53 168.078C270.145 168.078 269.783 168.003 269.444 167.852C269.111 167.695 268.814 167.482 268.553 167.211C268.298 166.935 268.095 166.607 267.944 166.227C267.798 165.841 267.725 165.419 267.725 164.961V160.797H268.928V164.961C268.928 165.258 268.973 165.529 269.061 165.773C269.155 166.018 269.28 166.229 269.436 166.406C269.598 166.583 269.785 166.721 269.999 166.82C270.212 166.914 270.442 166.961 270.686 166.961C271.254 166.961 271.715 166.781 272.069 166.422C272.428 166.057 272.608 165.57 272.608 164.961V160.797H273.803V168H272.928L272.608 167.203C272.457 167.375 272.28 167.523 272.077 167.648C271.895 167.768 271.676 167.87 271.421 167.953C271.171 168.036 270.874 168.078 270.53 168.078ZM279.271 161.922H278.951C278.383 161.922 277.922 162.104 277.568 162.469C277.214 162.828 277.037 163.312 277.037 163.922V168H275.834V160.797H276.716L277.037 161.602C277.188 161.44 277.362 161.297 277.56 161.172C277.742 161.052 277.961 160.948 278.216 160.859C278.472 160.766 278.771 160.719 279.115 160.719H279.271V161.922ZM286.777 168.078C286.391 168.078 286.029 168.003 285.691 167.852C285.357 167.695 285.061 167.482 284.8 167.211C284.545 166.935 284.342 166.607 284.191 166.227C284.045 165.841 283.972 165.419 283.972 164.961V160.797H285.175V164.961C285.175 165.258 285.219 165.529 285.308 165.773C285.402 166.018 285.527 166.229 285.683 166.406C285.844 166.583 286.032 166.721 286.245 166.82C286.459 166.914 286.688 166.961 286.933 166.961C287.501 166.961 287.962 166.781 288.316 166.422C288.675 166.057 288.855 165.57 288.855 164.961V160.797H290.05V168H289.175L288.855 167.203C288.704 167.375 288.527 167.523 288.324 167.648C288.141 167.768 287.923 167.87 287.667 167.953C287.417 168.036 287.12 168.078 286.777 168.078ZM296.799 165.922C296.799 166.219 296.739 166.497 296.619 166.758C296.505 167.018 296.341 167.247 296.127 167.445C295.914 167.643 295.656 167.799 295.354 167.914C295.052 168.023 294.708 168.078 294.322 168.078C293.52 168.078 292.89 167.865 292.432 167.438C291.973 167.01 291.723 166.479 291.682 165.844H292.885C292.927 166.161 293.065 166.427 293.299 166.641C293.533 166.854 293.875 166.961 294.322 166.961C294.729 166.961 295.044 166.857 295.268 166.648C295.492 166.44 295.604 166.198 295.604 165.922C295.604 165.656 295.51 165.456 295.322 165.32C295.135 165.185 294.903 165.078 294.627 165C294.351 164.922 294.049 164.849 293.721 164.781C293.398 164.708 293.096 164.604 292.815 164.469C292.539 164.328 292.307 164.13 292.119 163.875C291.932 163.615 291.838 163.255 291.838 162.797C291.838 162.521 291.895 162.258 292.01 162.008C292.13 161.758 292.294 161.536 292.502 161.344C292.71 161.151 292.96 161 293.252 160.891C293.549 160.776 293.88 160.719 294.244 160.719C295.01 160.719 295.604 160.919 296.026 161.32C296.447 161.721 296.679 162.242 296.721 162.883H295.518C295.476 162.565 295.354 162.312 295.151 162.125C294.947 161.938 294.645 161.844 294.244 161.844C293.88 161.844 293.588 161.943 293.369 162.141C293.151 162.333 293.041 162.552 293.041 162.797C293.041 163.062 293.135 163.263 293.322 163.398C293.51 163.534 293.742 163.643 294.018 163.727C294.294 163.805 294.593 163.878 294.916 163.945C295.244 164.013 295.546 164.117 295.822 164.258C296.104 164.393 296.335 164.594 296.518 164.859C296.705 165.12 296.799 165.474 296.799 165.922ZM304.189 166.078C304.069 166.333 303.918 166.586 303.735 166.836C303.553 167.081 303.34 167.294 303.095 167.477C302.85 167.654 302.571 167.799 302.259 167.914C301.952 168.023 301.608 168.078 301.228 168.078C300.769 168.078 300.334 167.99 299.923 167.812C299.511 167.63 299.152 167.378 298.845 167.055C298.543 166.727 298.303 166.339 298.126 165.891C297.954 165.443 297.868 164.945 297.868 164.398C297.868 163.857 297.954 163.362 298.126 162.914C298.303 162.466 298.54 162.081 298.837 161.758C299.139 161.43 299.491 161.174 299.892 160.992C300.293 160.81 300.712 160.719 301.149 160.719C301.587 160.719 301.998 160.805 302.384 160.977C302.774 161.148 303.113 161.393 303.399 161.711C303.691 162.023 303.92 162.401 304.087 162.844C304.259 163.286 304.345 163.779 304.345 164.32C304.345 164.424 304.34 164.516 304.329 164.594C304.319 164.667 304.308 164.729 304.298 164.781C304.287 164.844 304.277 164.904 304.267 164.961H299.149C299.17 165.216 299.241 165.466 299.36 165.711C299.485 165.956 299.639 166.169 299.821 166.352C300.009 166.534 300.225 166.682 300.47 166.797C300.72 166.906 300.972 166.961 301.228 166.961C301.452 166.961 301.649 166.93 301.821 166.867C301.998 166.799 302.16 166.724 302.306 166.641C302.452 166.557 302.571 166.466 302.665 166.367C302.764 166.263 302.845 166.167 302.907 166.078H304.189ZM301.149 161.844C300.905 161.844 300.67 161.896 300.446 162C300.228 162.104 300.027 162.247 299.845 162.43C299.668 162.612 299.517 162.831 299.392 163.086C299.272 163.341 299.191 163.62 299.149 163.922H303.064C302.98 163.281 302.759 162.776 302.399 162.406C302.045 162.031 301.629 161.844 301.149 161.844ZM312.163 161.844C311.887 161.844 311.616 161.906 311.35 162.031C311.09 162.151 310.858 162.323 310.655 162.547C310.452 162.771 310.29 163.039 310.171 163.352C310.056 163.664 309.999 164.013 309.999 164.398C309.999 164.784 310.056 165.135 310.171 165.453C310.29 165.766 310.452 166.034 310.655 166.258C310.858 166.482 311.09 166.656 311.35 166.781C311.616 166.901 311.887 166.961 312.163 166.961C312.397 166.961 312.619 166.919 312.827 166.836C313.035 166.747 313.22 166.635 313.382 166.5C313.548 166.359 313.689 166.198 313.803 166.016C313.923 165.833 314.017 165.641 314.085 165.438H315.28C315.197 165.802 315.064 166.146 314.882 166.469C314.699 166.786 314.473 167.065 314.202 167.305C313.931 167.544 313.621 167.734 313.272 167.875C312.928 168.01 312.559 168.078 312.163 168.078C311.704 168.078 311.27 167.99 310.858 167.812C310.447 167.63 310.087 167.378 309.78 167.055C309.478 166.727 309.238 166.339 309.061 165.891C308.889 165.443 308.803 164.945 308.803 164.398C308.803 163.857 308.889 163.362 309.061 162.914C309.238 162.466 309.478 162.081 309.78 161.758C310.087 161.43 310.447 161.174 310.858 160.992C311.27 160.81 311.704 160.719 312.163 160.719C312.559 160.719 312.928 160.789 313.272 160.93C313.621 161.065 313.931 161.255 314.202 161.5C314.473 161.74 314.699 162.018 314.882 162.336C315.064 162.654 315.197 162.995 315.28 163.359H314.085C314.022 163.156 313.931 162.966 313.811 162.789C313.691 162.607 313.548 162.445 313.382 162.305C313.22 162.164 313.035 162.052 312.827 161.969C312.619 161.885 312.397 161.844 312.163 161.844ZM319.466 160.719C319.862 160.719 320.227 160.786 320.56 160.922C320.899 161.052 321.188 161.229 321.427 161.453C321.667 161.677 321.852 161.94 321.982 162.242C322.117 162.539 322.185 162.859 322.185 163.203V168H321.31L320.99 167.203C320.828 167.375 320.646 167.523 320.443 167.648C320.261 167.768 320.037 167.87 319.771 167.953C319.505 168.036 319.19 168.078 318.826 168.078C318.461 168.078 318.133 168.023 317.841 167.914C317.55 167.799 317.3 167.643 317.091 167.445C316.883 167.247 316.719 167.018 316.599 166.758C316.485 166.497 316.427 166.219 316.427 165.922C316.427 165.578 316.495 165.266 316.63 164.984C316.771 164.703 317.011 164.458 317.349 164.25C317.693 164.042 318.162 163.883 318.755 163.773C319.349 163.659 320.094 163.602 320.99 163.602V163.203C320.99 162.839 320.847 162.521 320.56 162.25C320.279 161.979 319.914 161.844 319.466 161.844C319.018 161.844 318.688 161.938 318.474 162.125C318.261 162.307 318.112 162.56 318.029 162.883H316.748C316.789 162.586 316.88 162.307 317.021 162.047C317.162 161.781 317.347 161.549 317.576 161.352C317.805 161.154 318.076 161 318.388 160.891C318.701 160.776 319.06 160.719 319.466 160.719ZM318.826 166.961C319.143 166.961 319.435 166.911 319.701 166.812C319.972 166.708 320.201 166.578 320.388 166.422C320.576 166.26 320.722 166.081 320.826 165.883C320.935 165.685 320.99 165.484 320.99 165.281V164.719C320.266 164.719 319.685 164.75 319.248 164.812C318.81 164.87 318.469 164.956 318.224 165.07C317.985 165.18 317.826 165.312 317.748 165.469C317.67 165.62 317.63 165.797 317.63 166C317.63 166.245 317.737 166.466 317.951 166.664C318.17 166.862 318.461 166.961 318.826 166.961ZM328.856 165.922C328.856 166.219 328.796 166.497 328.676 166.758C328.562 167.018 328.398 167.247 328.184 167.445C327.97 167.643 327.713 167.799 327.411 167.914C327.108 168.023 326.765 168.078 326.379 168.078C325.577 168.078 324.947 167.865 324.489 167.438C324.03 167.01 323.78 166.479 323.739 165.844H324.942C324.983 166.161 325.122 166.427 325.356 166.641C325.59 166.854 325.931 166.961 326.379 166.961C326.786 166.961 327.101 166.857 327.325 166.648C327.549 166.44 327.661 166.198 327.661 165.922C327.661 165.656 327.567 165.456 327.379 165.32C327.192 165.185 326.96 165.078 326.684 165C326.408 164.922 326.106 164.849 325.778 164.781C325.455 164.708 325.153 164.604 324.872 164.469C324.595 164.328 324.364 164.13 324.176 163.875C323.989 163.615 323.895 163.255 323.895 162.797C323.895 162.521 323.952 162.258 324.067 162.008C324.187 161.758 324.351 161.536 324.559 161.344C324.767 161.151 325.017 161 325.309 160.891C325.606 160.776 325.937 160.719 326.301 160.719C327.067 160.719 327.661 160.919 328.082 161.32C328.504 161.721 328.736 162.242 328.778 162.883H327.575C327.533 162.565 327.411 162.312 327.207 162.125C327.004 161.938 326.702 161.844 326.301 161.844C325.937 161.844 325.645 161.943 325.426 162.141C325.207 162.333 325.098 162.552 325.098 162.797C325.098 163.062 325.192 163.263 325.379 163.398C325.567 163.534 325.799 163.643 326.075 163.727C326.351 163.805 326.65 163.878 326.973 163.945C327.301 164.013 327.603 164.117 327.879 164.258C328.161 164.393 328.392 164.594 328.575 164.859C328.762 165.12 328.856 165.474 328.856 165.922ZM336.245 166.078C336.126 166.333 335.975 166.586 335.792 166.836C335.61 167.081 335.396 167.294 335.152 167.477C334.907 167.654 334.628 167.799 334.316 167.914C334.008 168.023 333.665 168.078 333.284 168.078C332.826 168.078 332.391 167.99 331.98 167.812C331.568 167.63 331.209 167.378 330.902 167.055C330.6 166.727 330.36 166.339 330.183 165.891C330.011 165.443 329.925 164.945 329.925 164.398C329.925 163.857 330.011 163.362 330.183 162.914C330.36 162.466 330.597 162.081 330.894 161.758C331.196 161.43 331.547 161.174 331.949 160.992C332.35 160.81 332.769 160.719 333.206 160.719C333.644 160.719 334.055 160.805 334.441 160.977C334.831 161.148 335.17 161.393 335.456 161.711C335.748 162.023 335.977 162.401 336.144 162.844C336.316 163.286 336.402 163.779 336.402 164.32C336.402 164.424 336.396 164.516 336.386 164.594C336.376 164.667 336.365 164.729 336.355 164.781C336.344 164.844 336.334 164.904 336.324 164.961H331.206C331.227 165.216 331.297 165.466 331.417 165.711C331.542 165.956 331.696 166.169 331.878 166.352C332.066 166.534 332.282 166.682 332.527 166.797C332.777 166.906 333.029 166.961 333.284 166.961C333.508 166.961 333.706 166.93 333.878 166.867C334.055 166.799 334.217 166.724 334.363 166.641C334.508 166.557 334.628 166.466 334.722 166.367C334.821 166.263 334.902 166.167 334.964 166.078H336.245ZM333.206 161.844C332.962 161.844 332.727 161.896 332.503 162C332.284 162.104 332.084 162.247 331.902 162.43C331.725 162.612 331.574 162.831 331.449 163.086C331.329 163.341 331.248 163.62 331.206 163.922H335.12C335.037 163.281 334.816 162.776 334.456 162.406C334.102 162.031 333.685 161.844 333.206 161.844ZM337.471 167.281C337.471 167.036 337.541 166.841 337.682 166.695C337.828 166.549 338.023 166.477 338.268 166.477C338.512 166.477 338.705 166.549 338.846 166.695C338.992 166.841 339.065 167.036 339.065 167.281C339.065 167.526 338.992 167.721 338.846 167.867C338.705 168.008 338.512 168.078 338.268 168.078C338.023 168.078 337.828 168.008 337.682 167.867C337.541 167.721 337.471 167.526 337.471 167.281Z" fill="#757575"/>
<path d="M95.4229 95.288C95.4229 94.616 95.5629 93.972 95.8429 93.356C96.1416 92.74 96.5522 92.208 97.0749 91.76C97.6162 91.2933 98.2602 90.92 99.0069 90.64C99.7722 90.36 100.631 90.22 101.583 90.22C102.46 90.22 103.254 90.36 103.963 90.64C104.691 90.92 105.316 91.312 105.839 91.816C106.362 92.32 106.763 92.9173 107.043 93.608C107.323 94.28 107.463 95.0173 107.463 95.82H104.243C104.243 95.036 104.01 94.42 103.543 93.972C103.076 93.524 102.423 93.3 101.583 93.3C100.743 93.3 100.09 93.5053 99.6229 93.916C99.1562 94.3267 98.9229 94.7747 98.9229 95.26C98.9229 95.7827 99.1469 96.184 99.5949 96.464C100.043 96.744 100.603 96.996 101.275 97.22C101.947 97.444 102.675 97.6773 103.459 97.92C104.262 98.1627 104.999 98.4893 105.671 98.9C106.343 99.3107 106.903 99.852 107.351 100.524C107.799 101.177 108.023 102.036 108.023 103.1C108.023 103.735 107.864 104.351 107.547 104.948C107.248 105.545 106.819 106.087 106.259 106.572C105.699 107.039 105.018 107.421 104.215 107.72C103.431 108 102.554 108.14 101.583 108.14C100.594 108.14 99.7069 108 98.9229 107.72C98.1576 107.44 97.5042 107.048 96.9629 106.544C96.4216 106.021 96.0016 105.415 95.7029 104.724C95.4229 104.015 95.2829 103.24 95.2829 102.4H98.6429C98.6429 103.184 98.9042 103.828 99.4269 104.332C99.9496 104.817 100.668 105.06 101.583 105.06C102.572 105.06 103.31 104.855 103.795 104.444C104.28 104.015 104.523 103.52 104.523 102.96C104.523 102.419 104.299 101.999 103.851 101.7C103.403 101.401 102.843 101.14 102.171 100.916C101.499 100.673 100.762 100.44 99.9589 100.216C99.1749 99.992 98.4469 99.684 97.7749 99.292C97.1029 98.9 96.5429 98.396 96.0949 97.78C95.6469 97.1453 95.4229 96.3147 95.4229 95.288ZM111.706 92.04H114.506V95.12H117.306V98.06H114.506V103.38C114.506 103.94 114.664 104.388 114.982 104.724C115.318 105.041 115.766 105.2 116.326 105.2C116.475 105.2 116.596 105.2 116.69 105.2C116.783 105.181 116.867 105.163 116.942 105.144C117.016 105.125 117.091 105.097 117.166 105.06V107.86C117.035 107.916 116.886 107.963 116.718 108C116.4 108.093 116.036 108.14 115.626 108.14C114.991 108.14 114.403 108.037 113.862 107.832C113.339 107.608 112.882 107.291 112.49 106.88C112.116 106.469 111.818 105.984 111.594 105.424C111.388 104.864 111.286 104.229 111.286 103.52V98.06H109.326V95.4H110.166C111.192 95.4 111.706 94.8867 111.706 93.86V92.04ZM124.921 94.98C125.649 94.98 126.321 95.1107 126.937 95.372C127.553 95.6147 128.085 95.96 128.533 96.408C128.981 96.856 129.326 97.388 129.569 98.004C129.83 98.62 129.961 99.292 129.961 100.02V108H127.581L127.021 106.74C126.722 107.001 126.395 107.235 126.041 107.44C125.723 107.627 125.341 107.795 124.893 107.944C124.445 108.075 123.941 108.14 123.381 108.14C121.981 108.14 120.907 107.804 120.161 107.132C119.414 106.441 119.041 105.564 119.041 104.5C119.041 103.865 119.162 103.287 119.405 102.764C119.666 102.223 120.095 101.765 120.693 101.392C121.29 101 122.074 100.701 123.045 100.496C124.034 100.272 125.266 100.16 126.741 100.16C126.741 99.4507 126.545 98.9 126.153 98.508C125.779 98.116 125.275 97.92 124.641 97.92C124.211 97.92 123.866 97.9947 123.605 98.144C123.362 98.2933 123.166 98.452 123.017 98.62C122.849 98.8253 122.737 99.0587 122.681 99.32H119.461C119.535 98.7227 119.703 98.1627 119.965 97.64C120.245 97.1173 120.618 96.66 121.085 96.268C121.551 95.876 122.102 95.568 122.737 95.344C123.39 95.1013 124.118 94.98 124.921 94.98ZM123.941 105.62C124.781 105.62 125.453 105.377 125.957 104.892C126.479 104.388 126.741 103.744 126.741 102.96V102.4C125.789 102.4 125.023 102.447 124.445 102.54C123.866 102.615 123.409 102.736 123.073 102.904C122.755 103.053 122.541 103.24 122.429 103.464C122.317 103.688 122.261 103.94 122.261 104.22C122.261 104.575 122.419 104.901 122.737 105.2C123.054 105.48 123.455 105.62 123.941 105.62ZM138.826 94.98C138.975 94.98 139.106 94.9893 139.218 95.008C139.33 95.0267 139.432 95.0453 139.526 95.064C139.619 95.0827 139.712 95.1013 139.806 95.12V98.48C139.712 98.4613 139.61 98.4427 139.498 98.424C139.404 98.4053 139.283 98.3867 139.134 98.368C139.003 98.3493 138.854 98.34 138.686 98.34C137.902 98.34 137.258 98.6013 136.754 99.124C136.268 99.628 136.026 100.3 136.026 101.14V108H132.806V95.12H135.186L135.746 96.52C135.97 96.24 136.24 95.988 136.558 95.764C136.819 95.5587 137.136 95.3813 137.51 95.232C137.902 95.064 138.34 94.98 138.826 94.98ZM143.227 92.04H146.027V95.12H148.827V98.06H146.027V103.38C146.027 103.94 146.186 104.388 146.503 104.724C146.839 105.041 147.287 105.2 147.847 105.2C147.997 105.2 148.118 105.2 148.211 105.2C148.305 105.181 148.389 105.163 148.463 105.144C148.538 105.125 148.613 105.097 148.687 105.06V107.86C148.557 107.916 148.407 107.963 148.239 108C147.922 108.093 147.558 108.14 147.147 108.14C146.513 108.14 145.925 108.037 145.383 107.832C144.861 107.608 144.403 107.291 144.011 106.88C143.638 106.469 143.339 105.984 143.115 105.424C142.91 104.864 142.807 104.229 142.807 103.52V98.06H140.847V95.4H141.687C142.714 95.4 143.227 94.8867 143.227 93.86V92.04ZM167.681 90.36H171.321L165.441 101.28V108H162.081V101.28L156.201 90.36H159.841L163.761 97.92L167.681 90.36ZM174.31 101.56C174.31 102.624 174.618 103.473 175.234 104.108C175.85 104.743 176.615 105.06 177.53 105.06C178.445 105.06 179.21 104.743 179.826 104.108C180.442 103.473 180.75 102.624 180.75 101.56C180.75 100.496 180.442 99.6467 179.826 99.012C179.21 98.3773 178.445 98.06 177.53 98.06C176.615 98.06 175.85 98.3773 175.234 99.012C174.618 99.6467 174.31 100.496 174.31 101.56ZM183.97 101.56C183.97 102.475 183.793 103.333 183.438 104.136C183.102 104.92 182.635 105.611 182.038 106.208C181.459 106.805 180.778 107.281 179.994 107.636C179.229 107.972 178.407 108.14 177.53 108.14C176.653 108.14 175.822 107.972 175.038 107.636C174.273 107.281 173.591 106.805 172.994 106.208C172.415 105.611 171.949 104.92 171.594 104.136C171.258 103.333 171.09 102.475 171.09 101.56C171.09 100.645 171.258 99.796 171.594 99.012C171.949 98.2093 172.415 97.5093 172.994 96.912C173.591 96.3147 174.273 95.848 175.038 95.512C175.822 95.1573 176.653 94.98 177.53 94.98C178.407 94.98 179.229 95.1573 179.994 95.512C180.778 95.848 181.459 96.3147 182.038 96.912C182.635 97.5093 183.102 98.2093 183.438 99.012C183.793 99.796 183.97 100.645 183.97 101.56ZM191.433 108.14C190.668 108.14 189.968 108.019 189.333 107.776C188.698 107.515 188.148 107.151 187.681 106.684C187.233 106.199 186.878 105.62 186.617 104.948C186.374 104.276 186.253 103.52 186.253 102.68V95.12H189.473V102.26C189.473 103.1 189.716 103.781 190.201 104.304C190.705 104.808 191.349 105.06 192.133 105.06C192.917 105.06 193.552 104.808 194.037 104.304C194.541 103.781 194.793 103.1 194.793 102.26V95.12H198.013V108H195.633L195.073 106.74C194.756 107.001 194.41 107.235 194.037 107.44C193.72 107.627 193.337 107.795 192.889 107.944C192.441 108.075 191.956 108.14 191.433 108.14ZM207.037 94.98C207.186 94.98 207.317 94.9893 207.429 95.008C207.541 95.0267 207.643 95.0453 207.737 95.064C207.83 95.0827 207.923 95.1013 208.017 95.12V98.48C207.923 98.4613 207.821 98.4427 207.709 98.424C207.615 98.4053 207.494 98.3867 207.345 98.368C207.214 98.3493 207.065 98.34 206.897 98.34C206.113 98.34 205.469 98.6013 204.965 99.124C204.479 99.628 204.237 100.3 204.237 101.14V108H201.017V95.12H203.397L203.957 96.52C204.181 96.24 204.451 95.988 204.769 95.764C205.03 95.5587 205.347 95.3813 205.721 95.232C206.113 95.064 206.551 94.98 207.037 94.98ZM219.883 108H216.523V90.36H219.883V108ZM224.979 108H221.479L228.059 90.36H231.139L237.719 108H234.219L232.959 104.36H226.239L224.979 108ZM231.839 101.28L229.599 94.84L227.359 101.28H231.839ZM257.244 90.36V108H253.884V98.2L249.404 108H247.164L242.684 98.2V108H239.324V90.36H242.264L248.284 103.38L254.304 90.36H257.244ZM265.592 90.36H279.312V93.58H274.132V108H270.772V93.58H265.592V90.36ZM282.847 101.56C282.847 102.624 283.155 103.473 283.771 104.108C284.387 104.743 285.152 105.06 286.067 105.06C286.982 105.06 287.747 104.743 288.363 104.108C288.979 103.473 289.287 102.624 289.287 101.56C289.287 100.496 288.979 99.6467 288.363 99.012C287.747 98.3773 286.982 98.06 286.067 98.06C285.152 98.06 284.387 98.3773 283.771 99.012C283.155 99.6467 282.847 100.496 282.847 101.56ZM292.507 101.56C292.507 102.475 292.33 103.333 291.975 104.136C291.639 104.92 291.172 105.611 290.575 106.208C289.996 106.805 289.315 107.281 288.531 107.636C287.766 107.972 286.944 108.14 286.067 108.14C285.19 108.14 284.359 107.972 283.575 107.636C282.81 107.281 282.128 106.805 281.531 106.208C280.952 105.611 280.486 104.92 280.131 104.136C279.795 103.333 279.627 102.475 279.627 101.56C279.627 100.645 279.795 99.796 280.131 99.012C280.486 98.2093 280.952 97.5093 281.531 96.912C282.128 96.3147 282.81 95.848 283.575 95.512C284.359 95.1573 285.19 94.98 286.067 94.98C286.944 94.98 287.766 95.1573 288.531 95.512C289.315 95.848 289.996 96.3147 290.575 96.912C291.172 97.5093 291.639 98.2093 291.975 99.012C292.33 99.796 292.507 100.645 292.507 101.56ZM300.11 108.14C299.307 108.14 298.542 107.981 297.814 107.664C297.086 107.328 296.442 106.871 295.882 106.292C295.341 105.695 294.902 104.995 294.566 104.192C294.249 103.389 294.09 102.512 294.09 101.56C294.09 100.608 294.249 99.7307 294.566 98.928C294.902 98.1253 295.341 97.4347 295.882 96.856C296.442 96.2587 297.086 95.8013 297.814 95.484C298.542 95.148 299.307 94.98 300.11 94.98C300.633 94.98 301.099 95.0547 301.51 95.204C301.921 95.3347 302.275 95.4747 302.574 95.624C302.91 95.8107 303.209 96.016 303.47 96.24V90.36H306.69V108H304.31L303.75 106.74C303.451 107.001 303.125 107.235 302.77 107.44C302.453 107.627 302.07 107.795 301.622 107.944C301.174 108.075 300.67 108.14 300.11 108.14ZM303.75 101.56C303.75 100.496 303.442 99.6467 302.826 99.012C302.21 98.3773 301.445 98.06 300.53 98.06C299.615 98.06 298.85 98.3773 298.234 99.012C297.618 99.6467 297.31 100.496 297.31 101.56C297.31 102.624 297.618 103.473 298.234 104.108C298.85 104.743 299.615 105.06 300.53 105.06C301.445 105.06 302.21 104.743 302.826 104.108C303.442 103.473 303.75 102.624 303.75 101.56ZM315.01 94.98C315.738 94.98 316.41 95.1107 317.026 95.372C317.642 95.6147 318.174 95.96 318.622 96.408C319.07 96.856 319.416 97.388 319.658 98.004C319.92 98.62 320.05 99.292 320.05 100.02V108H317.67L317.11 106.74C316.812 107.001 316.485 107.235 316.13 107.44C315.813 107.627 315.43 107.795 314.982 107.944C314.534 108.075 314.03 108.14 313.47 108.14C312.07 108.14 310.997 107.804 310.25 107.132C309.504 106.441 309.13 105.564 309.13 104.5C309.13 103.865 309.252 103.287 309.494 102.764C309.756 102.223 310.185 101.765 310.782 101.392C311.38 101 312.164 100.701 313.134 100.496C314.124 100.272 315.356 100.16 316.83 100.16C316.83 99.4507 316.634 98.9 316.242 98.508C315.869 98.116 315.365 97.92 314.73 97.92C314.301 97.92 313.956 97.9947 313.694 98.144C313.452 98.2933 313.256 98.452 313.106 98.62C312.938 98.8253 312.826 99.0587 312.77 99.32H309.55C309.625 98.7227 309.793 98.1627 310.054 97.64C310.334 97.1173 310.708 96.66 311.174 96.268C311.641 95.876 312.192 95.568 312.826 95.344C313.48 95.1013 314.208 94.98 315.01 94.98ZM314.03 105.62C314.87 105.62 315.542 105.377 316.046 104.892C316.569 104.388 316.83 103.744 316.83 102.96V102.4C315.878 102.4 315.113 102.447 314.534 102.54C313.956 102.615 313.498 102.736 313.162 102.904C312.845 103.053 312.63 103.24 312.518 103.464C312.406 103.688 312.35 103.94 312.35 104.22C312.35 104.575 312.509 104.901 312.826 105.2C313.144 105.48 313.545 105.62 314.03 105.62ZM321.495 95.12H324.855L328.075 103.52L331.015 95.12H334.375C333.461 97.472 332.63 99.6 331.883 101.504C331.566 102.325 331.249 103.128 330.931 103.912C330.633 104.696 330.362 105.415 330.119 106.068C329.877 106.703 329.671 107.235 329.503 107.664C329.335 108.093 329.233 108.345 329.195 108.42C328.878 109.185 328.561 109.829 328.243 110.352C327.945 110.893 327.618 111.332 327.263 111.668C326.909 112.004 326.526 112.247 326.115 112.396C325.705 112.545 325.238 112.62 324.715 112.62C324.566 112.62 324.417 112.611 324.267 112.592C324.137 112.592 324.025 112.583 323.931 112.564C323.801 112.545 323.689 112.517 323.595 112.48V109.82C324.305 109.82 324.846 109.661 325.219 109.344C325.611 109.027 325.91 108.625 326.115 108.14L326.395 107.44L321.495 95.12ZM339.884 106.32C339.884 106.805 339.697 107.235 339.324 107.608C338.969 107.963 338.549 108.14 338.064 108.14C337.578 108.14 337.149 107.963 336.776 107.608C336.421 107.235 336.244 106.805 336.244 106.32C336.244 105.835 336.421 105.415 336.776 105.06C337.149 104.687 337.578 104.5 338.064 104.5C338.549 104.5 338.969 104.687 339.324 105.06C339.697 105.415 339.884 105.835 339.884 106.32ZM339.464 103.1H336.664L336.244 90.36H339.884L339.464 103.1Z" fill="black"/>
<rect x="127" y="203" width="183" height="46" rx="23" fill="#941649"/>
<path d="M179.973 220.292V231H178.354V224.368L175.3 231H174.279L171.216 224.368V231H169.605V220.292H170.958L174.785 228.535L178.612 220.292H179.973ZM187.567 227.173C187.567 226.808 187.506 226.476 187.384 226.177C187.268 225.878 187.113 225.618 186.92 225.397C186.726 225.176 186.499 225.007 186.239 224.891C185.979 224.769 185.713 224.708 185.442 224.708C185.171 224.708 184.905 224.769 184.645 224.891C184.385 225.007 184.158 225.176 183.964 225.397C183.771 225.618 183.613 225.881 183.491 226.186C183.375 226.484 183.317 226.814 183.317 227.173C183.317 227.539 183.375 227.871 183.491 228.169C183.613 228.468 183.771 228.728 183.964 228.95C184.158 229.171 184.385 229.343 184.645 229.464C184.905 229.581 185.171 229.639 185.442 229.639C185.713 229.639 185.979 229.581 186.239 229.464C186.499 229.343 186.726 229.171 186.92 228.95C187.113 228.728 187.268 228.468 187.384 228.169C187.506 227.871 187.567 227.539 187.567 227.173ZM189.094 227.173C189.094 227.749 189 228.277 188.812 228.759C188.63 229.235 188.369 229.647 188.032 229.996C187.7 230.339 187.312 230.607 186.87 230.801C186.427 230.989 185.951 231.083 185.442 231.083C184.933 231.083 184.457 230.989 184.014 230.801C183.572 230.607 183.181 230.339 182.844 229.996C182.512 229.647 182.252 229.235 182.064 228.759C181.881 228.283 181.79 227.754 181.79 227.173C181.79 226.598 181.881 226.072 182.064 225.596C182.252 225.12 182.512 224.711 182.844 224.368C183.181 224.019 183.572 223.748 184.014 223.554C184.457 223.361 184.933 223.264 185.442 223.264C185.951 223.264 186.427 223.361 186.87 223.554C187.312 223.748 187.7 224.019 188.032 224.368C188.369 224.711 188.63 225.12 188.812 225.596C189 226.072 189.094 226.598 189.094 227.173ZM197.294 223.347L194.231 231H192.87L189.807 223.347H191.426L193.551 228.875L195.676 223.347H197.294ZM205.063 228.792C204.935 229.107 204.775 229.403 204.581 229.68C204.388 229.957 204.155 230.2 203.884 230.411C203.613 230.621 203.297 230.787 202.938 230.909C202.584 231.025 202.185 231.083 201.742 231.083C201.233 231.083 200.757 230.989 200.315 230.801C199.872 230.607 199.485 230.339 199.153 229.996C198.82 229.647 198.56 229.235 198.372 228.759C198.184 228.283 198.09 227.754 198.09 227.173C198.09 226.598 198.184 226.072 198.372 225.596C198.56 225.12 198.815 224.711 199.136 224.368C199.457 224.019 199.836 223.748 200.273 223.554C200.71 223.361 201.172 223.264 201.659 223.264C202.146 223.264 202.608 223.361 203.046 223.554C203.483 223.748 203.862 224.019 204.183 224.368C204.504 224.711 204.758 225.12 204.946 225.596C205.135 226.072 205.229 226.598 205.229 227.173C205.229 227.262 205.223 227.35 205.212 227.439C205.201 227.522 205.19 227.594 205.179 227.655C205.168 227.732 205.157 227.799 205.146 227.854H199.7C199.722 228.092 199.792 228.319 199.908 228.535C200.024 228.75 200.168 228.941 200.34 229.107C200.517 229.268 200.727 229.398 200.97 229.498C201.214 229.592 201.471 229.639 201.742 229.639C202.207 229.639 202.575 229.539 202.846 229.34C203.123 229.141 203.322 228.958 203.444 228.792H205.063ZM201.659 224.708C201.15 224.708 200.719 224.882 200.364 225.231C200.016 225.574 199.794 226.025 199.7 226.584H203.784C203.696 226.031 203.469 225.58 203.104 225.231C202.744 224.882 202.263 224.708 201.659 224.708ZM212.689 228.452C212.689 228.789 212.802 229.071 213.029 229.298C213.256 229.525 213.538 229.639 213.876 229.639C213.931 229.639 213.989 229.636 214.05 229.63C214.116 229.625 214.177 229.617 214.233 229.605C214.288 229.594 214.341 229.578 214.39 229.556V230.917C214.324 230.95 214.244 230.978 214.15 231C213.978 231.055 213.776 231.083 213.544 231.083C213.206 231.083 212.891 231.022 212.597 230.9C212.31 230.773 212.058 230.596 211.842 230.369C211.626 230.142 211.457 229.868 211.336 229.547C211.219 229.226 211.161 228.861 211.161 228.452V224.791H209.8V223.347H210.398C210.691 223.347 210.934 223.253 211.128 223.064C211.322 222.871 211.419 222.627 211.419 222.334V221.313H212.689V223.347H214.39V224.791H212.689V228.452ZM221.312 227.173C221.312 226.808 221.251 226.476 221.129 226.177C221.013 225.878 220.858 225.618 220.665 225.397C220.471 225.176 220.244 225.007 219.984 224.891C219.724 224.769 219.458 224.708 219.187 224.708C218.916 224.708 218.65 224.769 218.39 224.891C218.13 225.007 217.903 225.176 217.709 225.397C217.516 225.618 217.358 225.881 217.236 226.186C217.12 226.484 217.062 226.814 217.062 227.173C217.062 227.539 217.12 227.871 217.236 228.169C217.358 228.468 217.516 228.728 217.709 228.95C217.903 229.171 218.13 229.343 218.39 229.464C218.65 229.581 218.916 229.639 219.187 229.639C219.458 229.639 219.724 229.581 219.984 229.464C220.244 229.343 220.471 229.171 220.665 228.95C220.858 228.728 221.013 228.468 221.129 228.169C221.251 227.871 221.312 227.539 221.312 227.173ZM222.839 227.173C222.839 227.749 222.745 228.277 222.557 228.759C222.375 229.235 222.114 229.647 221.777 229.996C221.445 230.339 221.057 230.607 220.615 230.801C220.172 230.989 219.696 231.083 219.187 231.083C218.678 231.083 218.202 230.989 217.759 230.801C217.317 230.607 216.926 230.339 216.589 229.996C216.257 229.647 215.997 229.235 215.809 228.759C215.626 228.283 215.535 227.754 215.535 227.173C215.535 226.598 215.626 226.072 215.809 225.596C215.997 225.12 216.257 224.711 216.589 224.368C216.926 224.019 217.317 223.748 217.759 223.554C218.202 223.361 218.678 223.264 219.187 223.264C219.696 223.264 220.172 223.361 220.615 223.554C221.057 223.748 221.445 224.019 221.777 224.368C222.114 224.711 222.375 225.12 222.557 225.596C222.745 226.072 222.839 226.598 222.839 227.173ZM234.724 228.194C234.635 228.604 234.494 228.986 234.3 229.34C234.107 229.688 233.86 229.993 233.562 230.253C233.268 230.513 232.931 230.718 232.549 230.867C232.173 231.011 231.763 231.083 231.32 231.083C230.811 231.083 230.335 230.989 229.893 230.801C229.45 230.607 229.06 230.339 228.722 229.996C228.39 229.647 228.13 229.235 227.942 228.759C227.759 228.283 227.668 227.754 227.668 227.173C227.668 226.598 227.759 226.072 227.942 225.596C228.13 225.12 228.39 224.711 228.722 224.368C229.06 224.019 229.45 223.748 229.893 223.554C230.335 223.361 230.811 223.264 231.32 223.264C231.763 223.264 232.173 223.338 232.549 223.488C232.931 223.632 233.268 223.836 233.562 224.102C233.86 224.362 234.104 224.669 234.292 225.023C234.486 225.372 234.63 225.748 234.724 226.152H233.105C232.978 225.721 232.767 225.372 232.474 225.106C232.181 224.841 231.796 224.708 231.32 224.708C231.049 224.708 230.784 224.769 230.523 224.891C230.263 225.007 230.037 225.176 229.843 225.397C229.649 225.618 229.491 225.881 229.37 226.186C229.253 226.484 229.195 226.814 229.195 227.173C229.195 227.539 229.253 227.871 229.37 228.169C229.491 228.468 229.649 228.728 229.843 228.95C230.037 229.171 230.263 229.343 230.523 229.464C230.784 229.581 231.049 229.639 231.32 229.639C231.796 229.639 232.181 229.506 232.474 229.24C232.773 228.975 232.983 228.626 233.105 228.194H234.724ZM239.944 223.264C240.364 223.264 240.76 223.347 241.131 223.513C241.507 223.679 241.833 223.906 242.11 224.193C242.392 224.481 242.611 224.83 242.766 225.239C242.926 225.643 243.007 226.091 243.007 226.584V231H241.479V226.584C241.479 226.335 241.43 226.097 241.33 225.87C241.236 225.643 241.106 225.444 240.94 225.272C240.779 225.101 240.591 224.965 240.375 224.866C240.16 224.761 239.933 224.708 239.695 224.708C239.435 224.708 239.191 224.761 238.964 224.866C238.737 224.965 238.538 225.101 238.367 225.272C238.195 225.444 238.059 225.643 237.96 225.87C237.866 226.091 237.819 226.329 237.819 226.584V231H236.291V220.292H237.819V224.119C237.979 223.958 238.162 223.814 238.367 223.687C238.549 223.587 238.773 223.493 239.039 223.405C239.305 223.311 239.606 223.264 239.944 223.264ZM251.539 228.792C251.411 229.107 251.251 229.403 251.057 229.68C250.864 229.957 250.631 230.2 250.36 230.411C250.089 230.621 249.773 230.787 249.414 230.909C249.06 231.025 248.661 231.083 248.218 231.083C247.709 231.083 247.233 230.989 246.791 230.801C246.348 230.607 245.961 230.339 245.629 229.996C245.296 229.647 245.036 229.235 244.848 228.759C244.66 228.283 244.566 227.754 244.566 227.173C244.566 226.598 244.66 226.072 244.848 225.596C245.036 225.12 245.291 224.711 245.612 224.368C245.933 224.019 246.312 223.748 246.749 223.554C247.186 223.361 247.648 223.264 248.135 223.264C248.622 223.264 249.084 223.361 249.522 223.554C249.959 223.748 250.338 224.019 250.659 224.368C250.98 224.711 251.234 225.12 251.422 225.596C251.611 226.072 251.705 226.598 251.705 227.173C251.705 227.262 251.699 227.35 251.688 227.439C251.677 227.522 251.666 227.594 251.655 227.655C251.644 227.732 251.633 227.799 251.622 227.854H246.176C246.199 228.092 246.268 228.319 246.384 228.535C246.5 228.75 246.644 228.941 246.816 229.107C246.993 229.268 247.203 229.398 247.446 229.498C247.69 229.592 247.947 229.639 248.218 229.639C248.683 229.639 249.051 229.539 249.322 229.34C249.599 229.141 249.798 228.958 249.92 228.792H251.539ZM248.135 224.708C247.626 224.708 247.195 224.882 246.84 225.231C246.492 225.574 246.27 226.025 246.176 226.584H250.26C250.172 226.031 249.945 225.58 249.58 225.231C249.22 224.882 248.739 224.708 248.135 224.708ZM259.905 228.194C259.816 228.604 259.675 228.986 259.481 229.34C259.288 229.688 259.041 229.993 258.743 230.253C258.449 230.513 258.112 230.718 257.73 230.867C257.354 231.011 256.944 231.083 256.501 231.083C255.992 231.083 255.516 230.989 255.074 230.801C254.631 230.607 254.241 230.339 253.903 229.996C253.571 229.647 253.311 229.235 253.123 228.759C252.94 228.283 252.849 227.754 252.849 227.173C252.849 226.598 252.94 226.072 253.123 225.596C253.311 225.12 253.571 224.711 253.903 224.368C254.241 224.019 254.631 223.748 255.074 223.554C255.516 223.361 255.992 223.264 256.501 223.264C256.944 223.264 257.354 223.338 257.73 223.488C258.112 223.632 258.449 223.836 258.743 224.102C259.041 224.362 259.285 224.669 259.473 225.023C259.667 225.372 259.811 225.748 259.905 226.152H258.286C258.159 225.721 257.948 225.372 257.655 225.106C257.362 224.841 256.977 224.708 256.501 224.708C256.23 224.708 255.965 224.769 255.704 224.891C255.444 225.007 255.217 225.176 255.024 225.397C254.83 225.618 254.672 225.881 254.551 226.186C254.434 226.484 254.376 226.814 254.376 227.173C254.376 227.539 254.434 227.871 254.551 228.169C254.672 228.468 254.83 228.728 255.024 228.95C255.217 229.171 255.444 229.343 255.704 229.464C255.965 229.581 256.23 229.639 256.501 229.639C256.977 229.639 257.362 229.506 257.655 229.24C257.954 228.975 258.164 228.626 258.286 228.194H259.905ZM265.98 231L263 227.348V231H261.472V220.292H263V226.667L265.639 223.347H267.424L264.452 226.916L267.847 231H265.98Z" fill="#F2F2F2"/>
<path d="M378.9 56.3068L368.3 66.9198M368.3 56.3068L378.9 66.9198" stroke="#AEAEAE" stroke-linecap="round"/>
<defs>
<filter id="filter0_d" x="0.210876" y="0.210938" width="435.578" height="332.578" filterUnits="userSpaceOnUse" color-interpolation-filters="sRGB">
<feFlood flood-opacity="0" result="BackgroundImageFix"/>
<feColorMatrix in="SourceAlpha" type="matrix" values="0 0 0 0 0 0 0 0 0 0 0 0 0 0 0 0 0 0 127 0"/>
<feOffset dy="3"/>
<feGaussianBlur stdDeviation="21"/>
<feColorMatrix type="matrix" values="0 0 0 0 0.525 0 0 0 0 0.525 0 0 0 0 0.525 0 0 0 0.25 0"/>
<feBlend mode="normal" in2="BackgroundImageFix" result="effect1_dropShadow"/>
<feBlend mode="normal" in="SourceGraphic" in2="effect1_dropShadow" result="shape"/>
</filter>
<linearGradient id="paint0_linear" x1="43" y1="40" x2="64.1132" y2="299.519" gradientUnits="userSpaceOnUse">
<stop stop-color="#F8F8F8"/>
<stop offset="1" stop-color="white"/>
</linearGradient>
<linearGradient id="paint1_linear" x1="43" y1="40" x2="91.1798" y2="336.109" gradientUnits="userSpaceOnUse">
<stop stop-color="white"/>
<stop offset="1" stop-color="#F1F1F1"/>
</linearGradient>
</defs>
</svg>
